<?xml version="1.0" standalone="no"?>
<!DOCTYPE svg PUBLIC "-//W3C//DTD SVG 20010904//EN"
 "http://www.w3.org/TR/2001/REC-SVG-20010904/DTD/svg10.dtd">
<svg version="1.0" xmlns="http://www.w3.org/2000/svg"
 width="800.000000pt" height="800.000000pt" viewBox="0 0 800.000000 800.000000"
 preserveAspectRatio="xMidYMid meet">
<metadata>
Created by potrace 1.14, written by Peter Selinger 2001-2017
</metadata>
<g transform="translate(0.000000,800.000000) scale(0.100000,-0.100000)"
fill="#000000" stroke="none">
<path d="M0 4000 l0 -4000 4000 0 4000 0 0 4000 0 4000 -4000 0 -4000 0 0
-4000z m4205 3260 c335 -24 653 -105 975 -247 157 -69 456 -241 551 -316 16
-12 49 -38 75 -57 155 -115 440 -402 537 -540 77 -110 151 -227 183 -290 44
-85 64 -130 60 -130 -1 0 -32 37 -67 83 -121 156 -297 352 -450 503 -504 493
-1056 776 -1704 871 -171 25 -575 25 -735 0 -745 -117 -1407 -494 -1944 -1107
-94 -108 -243 -291 -272 -336 -9 -13 -19 -22 -21 -20 -3 3 23 58 57 123 221
420 597 796 1062 1061 415 236 856 372 1318 405 102 8 243 6 375 -3z m-29
-907 c45 -22 111 -50 148 -63 61 -20 140 -72 175 -113 19 -24 7 -23 -124 13
-140 38 -188 38 -273 1 -37 -15 -76 -31 -86 -35 -18 -6 -19 -14 -13 -126 6
-103 5 -120 -8 -120 -13 0 -15 35 -15 246 l0 246 58 -4 c41 -3 80 -15 138 -45z
m-672 -249 c8 -21 -1 -34 -24 -34 -10 0 -21 4 -24 9 -10 16 5 41 24 41 10 0
21 -7 24 -16z m936 -129 c0 -8 -9 -15 -20 -15 -11 0 -20 7 -20 15 0 8 9 15 20
15 11 0 20 -7 20 -15z m388 -3 c2 -7 -3 -12 -12 -12 -9 0 -16 7 -16 16 0 17
22 14 28 -4z m-828 -114 c0 -6 -3 -8 -7 -5 -3 4 -18 -3 -32 -15 l-26 -23 24
28 c26 29 41 35 41 15z m-790 -68 c0 -13 -7 -20 -20 -20 -13 0 -20 7 -20 20 0
13 7 20 20 20 13 0 20 -7 20 -20z m609 -117 c-7 -10 -30 -37 -51 -60 -21 -24
-38 -46 -38 -51 0 -13 -227 -239 -284 -283 -28 -21 -97 -70 -154 -109 l-104
-70 -90 0 -91 0 114 56 c220 108 453 279 644 473 59 60 80 77 54 44z m201
-158 c11 -66 35 -184 53 -262 l34 -143 -112 0 -112 0 33 156 c18 86 40 213 50
281 12 79 21 118 26 107 4 -11 16 -73 28 -139z m-1182 63 l31 -25 -25 -12
c-14 -6 -34 -30 -44 -54 -15 -33 -20 -37 -20 -18 0 13 -15 38 -34 57 l-33 33
23 22 c12 11 28 34 35 51 l12 30 12 -29 c7 -16 26 -41 43 -55z m1331 -37 c89
-120 215 -263 310 -354 45 -43 81 -79 81 -82 0 -3 -42 -5 -92 -5 l-93 0 -20
33 c-11 17 -29 46 -40 64 -87 138 -161 278 -219 415 -19 42 -20 61 -3 34 7
-11 41 -58 76 -105z m211 -62 c66 -57 183 -146 290 -220 19 -13 93 -54 165
-91 l130 -67 -87 -1 -87 0 -98 66 c-124 84 -167 119 -276 224 -82 78 -212 225
-232 260 -5 8 21 -12 56 -45 35 -33 98 -90 139 -126z m-495 139 c-26 -87 -167
-358 -247 -476 l-29 -43 -95 2 -94 1 121 121 c107 107 295 333 328 395 6 12
14 22 17 22 3 0 2 -10 -1 -22z m1313 -117 c-15 -21 -15 -21 -32 -2 -15 16 -15
22 -4 40 12 20 13 20 32 2 17 -17 17 -21 4 -40z m-3751 -83 c41 -29 43 -57 7
-135 -61 -132 -109 -294 -139 -464 -20 -110 -35 -322 -43 -579 l-8 -225 -22
95 c-37 161 -45 260 -39 480 6 230 20 329 76 525 35 119 116 325 129 325 3 0
21 -10 39 -22z m5161 -28 c28 -54 86 -218 112 -319 77 -302 86 -660 25 -942
-28 -130 -32 -118 -38 149 -8 294 -18 417 -48 577 -26 141 -61 265 -109 390
-57 148 -57 148 -18 173 18 12 38 20 43 19 6 -2 20 -23 33 -47z m-4900 -127
c22 -41 -24 -83 -56 -51 -13 13 -16 50 -5 61 13 14 52 7 61 -10z m4632 -3 c12
-23 -2 -60 -23 -60 -29 0 -50 26 -43 53 8 33 50 38 66 7z m-3521 -269 c-17
-78 -25 -88 -68 -95 -23 -3 -242 -6 -487 -6 l-446 1 -51 -24 c-63 -29 -128
-92 -159 -155 l-23 -47 -3 -1149 c-2 -845 1 -1152 9 -1162 10 -12 393 -14
2405 -14 2372 0 2393 0 2404 20 7 13 10 373 8 1157 l-3 1138 -27 55 c-33 67
-108 141 -168 165 -42 17 -77 19 -475 16 -237 -2 -456 0 -487 4 l-56 7 -16 56
c-12 44 -13 58 -3 64 18 11 955 10 1016 -2 144 -27 270 -139 325 -287 21 -58
21 -64 24 -1262 1 -782 -1 -1224 -8 -1260 -31 -172 -170 -323 -331 -360 -61
-14 -4347 -14 -4408 0 -79 18 -148 57 -210 118 -78 76 -117 156 -132 272 -7
58 -9 446 -6 1249 5 1124 6 1167 25 1227 11 34 31 82 45 105 32 55 111 129
167 158 88 45 135 48 656 49 l492 1 -9 -39z m335 -48 c-33 -149 -80 -265 -155
-374 -57 -85 -188 -215 -269 -269 -180 -119 -403 -194 -510 -172 l-34 8 49 18
c217 82 445 243 549 389 85 120 156 300 156 400 l0 27 110 0 110 0 -6 -27z
m430 -10 c-40 -290 -145 -582 -287 -800 l-66 -103 -278 0 -278 0 80 46 c302
173 482 393 580 709 18 61 36 127 40 148 l6 37 104 0 104 0 -5 -37z m560 -120
c51 -283 126 -556 211 -765 7 -17 -14 -18 -364 -18 l-371 0 22 53 c80 199 163
500 199 722 12 77 23 146 25 153 2 9 36 12 127 12 l123 0 28 -157z m466 139
c0 -61 105 -364 150 -432 9 -14 30 -45 46 -69 98 -149 285 -308 472 -402 37
-18 37 -18 -240 -19 l-277 0 -18 26 c-10 14 -28 37 -39 52 -57 72 -164 293
-212 437 -32 95 -76 285 -88 373 l-7 52 107 0 c96 0 106 -2 106 -18z m435 -9
c46 -246 115 -377 278 -529 100 -94 316 -224 446 -269 l35 -12 -43 -7 c-78
-12 -221 24 -356 92 -286 142 -490 383 -555 655 -11 45 -20 85 -20 90 0 4 47
7 105 7 l105 0 5 -27z m-2890 -639 c23 -21 27 -31 22 -61 -10 -62 -53 -90
-107 -72 -36 13 -50 36 -50 83 0 69 82 99 135 50z m3786 -3 c31 -32 36 -55 18
-95 -18 -39 -58 -51 -103 -30 -39 19 -49 41 -44 95 6 61 80 79 129 30z m-3765
-871 c2 -245 4 -448 4 -452 0 -5 6 -8 14 -8 21 0 128 176 211 345 69 141 154
375 172 475 l9 45 142 3 143 3 -6 -48 c-9 -63 -83 -283 -141 -419 -103 -242
-292 -599 -411 -776 l-46 -68 -224 0 -225 0 40 34 c111 92 286 298 296 348 3
17 4 258 1 537 -3 377 -2 496 7 466 6 -25 12 -205 14 -485z m3706 -603 c61
-82 180 -210 241 -259 l49 -38 -224 0 -225 0 -53 83 c-187 289 -359 625 -470
922 -43 114 -89 268 -90 298 0 4 64 6 142 5 l142 -3 23 -85 c62 -238 196 -536
331 -738 66 -98 66 -96 63 338 -1 212 1 435 6 495 6 83 9 -22 13 -423 l5 -532
47 -63z m-1942 1007 c0 -19 -90 -172 -147 -249 -85 -115 -256 -285 -353 -351
-126 -85 -293 -155 -475 -199 -87 -21 -88 -21 -69 23 80 184 216 563 249 696
9 33 18 67 20 74 3 9 90 12 390 12 212 0 385 -3 385 -6z m891 -46 c26 -113
160 -496 235 -676 20 -46 34 -86 32 -88 -14 -14 -332 87 -430 137 -212 107
-448 343 -575 576 -24 43 -43 84 -43 91 0 9 83 12 384 12 l384 0 13 -52z
m-1602 -955 c7 -70 16 -164 21 -208 4 -44 5 -82 3 -84 -6 -7 -453 -14 -453 -7
0 7 76 199 95 243 8 17 15 34 15 38 0 4 7 31 15 60 l16 52 82 24 c45 12 105
33 132 45 l50 22 6 -28 c3 -16 12 -86 18 -157z m1612 161 c35 -14 95 -34 132
-44 l69 -17 53 -154 c29 -85 60 -174 69 -198 9 -24 16 -46 16 -48 0 -7 -438 1
-444 8 -2 2 4 99 15 214 10 116 18 222 19 238 0 15 1 27 3 27 2 0 32 -12 68
-26z m-427 -1456 c4 -95 6 -221 5 -279 -1 -59 2 -112 5 -118 4 -6 34 -11 66
-11 55 0 186 -14 238 -25 21 -5 22 -9 22 -129 l0 -123 -157 -6 c-87 -4 -541
-7 -1010 -7 -761 0 -853 2 -867 16 -19 18 -21 77 -3 92 21 18 365 121 491 147
110 24 322 48 337 39 4 -2 12 3 19 10 8 11 11 80 10 240 0 125 2 249 6 276 l7
50 412 0 412 0 7 -172z m1986 30 c67 -32 116 -78 141 -132 15 -33 19 -66 19
-178 l0 -138 -28 0 c-33 0 -65 -30 -79 -75 -8 -24 -11 -6 -15 91 -5 109 -8
125 -33 169 -41 69 -84 108 -162 147 l-68 33 -418 5 -419 5 44 32 c42 30 98
56 143 66 11 3 200 4 420 4 l400 -2 55 -27z m-243 -200 c67 -27 118 -66 138
-106 15 -30 19 -70 23 -224 5 -192 -4 -276 -34 -336 -34 -70 -151 -143 -262
-163 -66 -13 -264 -6 -305 10 -15 6 -49 30 -75 54 -26 25 -57 50 -70 56 -36
19 -80 3 -132 -45 -78 -73 -165 -96 -286 -75 -126 22 -210 83 -261 189 -28 56
-28 59 -27 242 1 199 9 240 58 305 33 43 99 86 154 101 35 9 177 11 542 10
432 -1 500 -4 537 -18z m326 -506 c8 -7 25 -14 36 -15 12 -1 21 -4 21 -8 0
-11 -102 -100 -107 -95 -3 3 -2 46 2 97 7 85 8 90 20 63 6 -16 19 -35 28 -42z"/>
<path d="M3938 2194 c-79 -42 -74 -160 8 -199 32 -15 40 -15 72 -3 41 15 82
68 82 105 0 57 -56 114 -112 113 -13 -1 -35 -7 -50 -16z"/>
<path d="M5897 2146 c-3 -8 -3 -24 0 -35 5 -20 11 -21 159 -21 l154 0 0 35 0
35 -154 0 c-123 0 -155 -3 -159 -14z"/>
<path d="M1757 2083 c-4 -3 -7 -22 -7 -40 l0 -34 53 3 c49 3 52 5 55 32 2 16
-2 32 -10 37 -16 10 -82 12 -91 2z"/>
<path d="M2000 2076 c-6 -8 -10 -25 -8 -38 3 -20 9 -23 55 -26 49 -3 53 -1 59
23 4 15 1 31 -6 40 -16 19 -84 20 -100 1z"/>
<path d="M2276 2074 c-18 -17 -19 -24 -10 -48 4 -12 20 -16 55 -16 47 0 49 1
49 28 0 15 -5 33 -12 40 -17 17 -64 15 -82 -4z"/>
<path d="M2558 2066 c-19 -42 -5 -58 49 -54 41 3 48 6 51 26 5 33 -15 52 -54
52 -27 0 -37 -6 -46 -24z"/>
<path d="M2836 2074 c-37 -36 -13 -66 50 -62 42 3 49 6 52 26 2 13 -2 30 -8
38 -16 19 -75 18 -94 -2z"/>
<path d="M3067 2076 c-8 -9 -12 -26 -10 -40 5 -24 9 -26 58 -26 51 0 65 9 65
40 0 35 -84 54 -113 26z"/>
<path d="M3317 2083 c-30 -8 -19 -65 14 -74 44 -11 78 0 86 29 10 41 -35 62
-100 45z"/>
<path d="M3560 2075 c-20 -25 -8 -50 25 -50 36 0 47 31 19 52 -23 17 -29 16
-44 -2z"/>
<path d="M2688 3773 c-9 -10 -19 -34 -23 -53 -4 -19 -18 -63 -31 -97 -13 -35
-21 -63 -19 -63 10 0 105 207 105 228 0 8 -19 -1 -32 -15z"/>
<path d="M5260 3781 c0 -17 66 -165 89 -201 13 -19 20 -26 15 -15 -4 11 -20
57 -35 103 -16 45 -33 91 -39 102 -11 21 -30 27 -30 11z"/>
<path d="M3071 2853 c-9 -19 -33 -155 -27 -160 2 -2 11 18 21 44 33 91 40 103
54 98 9 -4 11 0 7 11 -3 8 -6 18 -6 20 0 12 -41 1 -49 -13z"/>
<path d="M4860 2851 c-8 -16 -8 -21 2 -21 7 0 23 -21 35 -47 l22 -48 0 40 c1
69 -36 117 -59 76z"/>
<path d="M5119 1225 c-56 -18 -115 -73 -141 -133 -25 -56 -28 -190 -5 -245 37
-87 115 -148 208 -162 71 -10 124 9 178 64 64 65 77 71 171 71 90 0 118 -10
165 -60 66 -69 145 -92 248 -71 199 42 261 339 99 481 -24 22 -61 45 -81 52
-58 19 -782 22 -842 3z m161 -65 c20 -5 44 -16 55 -24 17 -12 14 -13 -28 -14
-114 -3 -197 -79 -214 -197 -6 -51 -17 -63 -38 -45 -41 34 -24 167 28 227 52
59 115 76 197 53z"/>
</g>
</svg>
